<mxfile host="app.diagrams.net" modified="2020-09-12T04:15:23.478Z" agent="5.0 (Windows)" etag="LxHJ_bFZyDgRgbl8Yyko" version="13.6.10" type="github">
  <diagram id="NMhrQw8z1PFQPTHyRNXi" name="Page-1">
    <mxGraphModel dx="1297" dy="824" grid="1" gridSize="10" guides="1" tooltips="1" connect="1" arrows="1" fold="1" page="1" pageScale="1" pageWidth="850" pageHeight="1100" math="0" shadow="0">
      <root>
        <mxCell id="0" />
        <mxCell id="1" parent="0" />
        <mxCell id="kCp0pPYI6X0vNHqOWzEt-1" value="testing" style="ellipse;whiteSpace=wrap;html=1;aspect=fixed;" vertex="1" parent="1">
          <mxGeometry x="130" y="210" width="80" height="80" as="geometry" />
        </mxCell>
      </root>
    </mxGraphModel>
  </diagram>
</mxfile>
